<svg width="44.000000" height="42.000000" viewBox="0 0 44 42" fill="none" xmlns="http://www.w3.org/2000/svg" xmlns:xlink="http://www.w3.org/1999/xlink">
	<desc>
			Created with Pixso.
	</desc>
	<defs>
		<clipPath id="clip5_1189">
			<rect id="лого" rx="0.000000" width="43.000000" height="41.000000" transform="translate(0.500000 0.500000)" fill="white" fill-opacity="0"/>
		</clipPath>
		<linearGradient x1="0.283489" y1="33.103653" x2="86.718689" y2="-15.070824" id="paint_linear_5_1191_0" gradientUnits="userSpaceOnUse">
			<stop stop-color="#0067AF"/>
			<stop offset="0.330000" stop-color="#5EF9F6"/>
			<stop offset="0.490000" stop-color="#FCE2A6"/>
			<stop offset="0.700000" stop-color="#F8BE3B"/>
			<stop offset="1.000000" stop-color="#6E3C1B"/>
		</linearGradient>
		<linearGradient x1="-11.392227" y1="49.823654" x2="121.513725" y2="-22.682739" id="paint_linear_5_1193_0" gradientUnits="userSpaceOnUse">
			<stop stop-color="#0067AF"/>
			<stop offset="0.330000" stop-color="#5EF9F6"/>
			<stop offset="0.490000" stop-color="#FCE2A6"/>
			<stop offset="0.700000" stop-color="#F8BE3B"/>
			<stop offset="1.000000" stop-color="#6E3C1B"/>
		</linearGradient>
	</defs>
	<g clip-path="url(#clip5_1189)">
		<mask id="mask5_1190" mask-type="alpha" maskUnits="userSpaceOnUse" x="0.000000" y="0.000000" width="44.000000" height="42.000000">
			<path id="Vector" d="M26.64 16.36C24.09 12.77 21.35 9.93 18.3 6.55L0 15.97L0 18.08L18.09 9.35L26.63 17.74L26.64 16.36L26.64 16.36ZM26.64 21.3C24.09 18.09 21.35 15.55 18.3 12.53L0 20.95L0 22.83L18.09 15.03L26.63 22.53L26.64 21.3ZM26.64 26.24C24.09 23.44 21.35 21.22 18.3 18.59L0 25.94L0 27.58L18.09 20.77L26.63 27.32L26.64 26.24ZM26.64 30.95C24.09 28.05 21.35 25.75 18.3 23.02L0 30.63L0 32.33C1.66 31.68 7.7 29.33 18.09 25.28L26.63 32.06L26.64 30.95ZM26.64 35.92C24.09 33.47 21.35 31.53 18.3 29.23L0 35.65L0 37.09L18.09 31.14L26.63 36.86L26.64 35.92ZM26.64 40.99C24.09 39.22 21.35 37.82 18.3 36.15L0 40.8L0 41.84L18.09 37.53L26.63 41.67L26.64 40.99ZM27.87 24.63L38.81 18.63L43.97 24.4C43.97 24.4 43.98 23.33 44 21.18C43.95 21.2 43.56 20.89 42.84 20.26L42.84 21.62L38.94 16.71L27.87 23.18L27.87 24.63ZM43.98 26.6C42.44 24.43 40.78 22.71 38.94 20.67L27.87 26.36L27.87 27.64L38.81 22.36L43.97 27.43L43.98 26.6ZM43.98 29.58C42.44 27.64 40.78 26.11 38.94 24.28L27.87 29.37L27.87 30.51L38.81 25.8L43.97 30.33L43.98 29.58ZM43.98 32.57C42.44 30.88 40.78 29.54 38.94 27.94L27.87 32.39L27.87 33.38L38.81 29.26L43.97 33.22L43.98 32.57ZM43.98 35.41C42.44 33.66 40.78 32.27 38.94 30.62L27.87 35.22L27.87 36.25L38.81 31.99L43.97 36.09L43.98 35.41ZM43.98 38.41C42.44 36.94 40.78 35.77 38.94 34.37L27.87 38.26L27.87 39.12L38.81 35.53L43.97 38.99C43.97 38.99 43.97 38.8 43.98 38.42L43.98 38.41ZM43.98 41.48C42.44 40.41 40.78 39.56 38.94 38.56L27.87 41.37L27.87 42L38.81 39.39L43.97 41.89L43.98 41.48ZM0 13.1L18.09 3.18L26.63 12.72L26.67 7.41C26.6 7.44 25.96 6.93 24.75 5.88L24.75 8.13L18.3 0L0 10.71L0 13.1Z" fill="url(#paint_linear_5_1191_0)" fill-opacity="0" fill-rule="nonzero"/>
			<path id="Vector" d="M26.64 16.36C24.09 12.77 21.35 9.93 18.3 6.55L0 15.97L0 18.08L18.09 9.35L26.63 17.74L26.64 16.36L26.64 16.36ZM26.64 21.3C24.09 18.09 21.35 15.55 18.3 12.53L0 20.95L0 22.83L18.09 15.03L26.63 22.53L26.64 21.3ZM26.64 26.24C24.09 23.44 21.35 21.22 18.3 18.59L0 25.94L0 27.58L18.09 20.77L26.63 27.32L26.64 26.24ZM26.64 30.95C24.09 28.05 21.35 25.75 18.3 23.02L0 30.63L0 32.33C1.66 31.68 7.7 29.33 18.09 25.28L26.63 32.06L26.64 30.95ZM26.64 35.92C24.09 33.47 21.35 31.53 18.3 29.23L0 35.65L0 37.09L18.09 31.14L26.63 36.86L26.64 35.92ZM26.64 40.99C24.09 39.22 21.35 37.82 18.3 36.15L0 40.8L0 41.84L18.09 37.53L26.63 41.67L26.64 40.99ZM27.87 24.63L38.81 18.63L43.97 24.4C43.97 24.4 43.98 23.33 44 21.18C43.95 21.2 43.56 20.89 42.84 20.26L42.84 21.62L38.94 16.71L27.87 23.18L27.87 24.63ZM43.98 26.6C42.44 24.43 40.78 22.71 38.94 20.67L27.87 26.36L27.87 27.64L38.81 22.36L43.97 27.43L43.98 26.6ZM43.98 29.58C42.44 27.64 40.78 26.11 38.94 24.28L27.87 29.37L27.87 30.51L38.81 25.8L43.97 30.33L43.98 29.58ZM43.98 32.57C42.44 30.88 40.78 29.54 38.94 27.94L27.87 32.39L27.87 33.38L38.81 29.26L43.97 33.22L43.98 32.57ZM43.98 35.41C42.44 33.66 40.78 32.27 38.94 30.62L27.87 35.22L27.87 36.25L38.81 31.99L43.97 36.09L43.98 35.41ZM43.98 38.41C42.44 36.94 40.78 35.77 38.94 34.37L27.87 38.26L27.87 39.12L38.81 35.53L43.97 38.99C43.97 38.99 43.97 38.8 43.98 38.42L43.98 38.41ZM43.98 41.48C42.44 40.41 40.78 39.56 38.94 38.56L27.87 41.37L27.87 42L38.81 39.39L43.97 41.89L43.98 41.48ZM0 13.1L18.09 3.18L26.63 12.72L26.67 7.41C26.6 7.44 25.96 6.93 24.75 5.88L24.75 8.13L18.3 0L0 10.71L0 13.1Z" fill="#825808" fill-opacity="1.000000" fill-rule="nonzero"/>
		</mask>
		<g mask="url(#mask5_1190)">
			<path id="Vector" d="M-11.83 0L55.82 0L55.82 63.21L-11.83 63.21L-11.83 0Z" fill="url(#paint_linear_5_1193_0)" fill-opacity="0" fill-rule="evenodd"/>
			<path id="Vector" d="M-11.83 0L55.82 0L55.82 63.21L-11.83 63.21L-11.83 0Z" fill="#825808" fill-opacity="1.000000" fill-rule="evenodd"/>
		</g>
	</g>
</svg>
